<svg viewBox="0 0 125 200" height="100">
  <path fill="salmon" d="M101.50074 5.6791855c2.59148 4.9499215 4.24715 16.7423815-.10798 19.0717565-4.35512 2.329374-13.101361-5.641455-15.69284-10.591376C83.108442 9.2096441 84.548152 3.3134142 88.903276.94764296 93.2584-1.3817318 98.909264.72926407 101.50074 5.6791855Z"/>
  <path fill="darkolivegreen" d="M49.311239 45.860901c-2.555486 9.026327-16.700641 33.157194-25.050962 30.755026-8.386313-2.402168-7.810429-30.463855-5.254943-39.490182 2.555486-9.026327 11.373713-14.37661 19.760026-11.974442 8.350321 2.402168 13.065372 11.68327 10.545879 20.709598z"/>
  <path fill="darkolivegreen" d="M48.951311 74.468535c8.098372 12.229217 12.705445 41.055235.395921 49.353625-12.309525 8.2984-36.856588-7.02452-44.9549587-19.25374C-3.706098 92.339207-.28678566 75.669618 12.022739 67.334824c12.309524-8.262001 28.830201-5.095507 36.928572 7.133711ZM124.42813 35.779075c-2.30354 10.736962-12.09357 24.531228-20.15594 22.747801-8.062383-1.747031-11.373717-18.380223-9.070181-29.153581 2.303537-10.736962 10.689851-18.016258 18.788221-16.269227 8.02639 1.783427 12.70545 11.938045 10.4379 22.675007z"/>
  <path fill="darkolivegreen" d="M114.6381 86.006219c-7.05458 12.120028-27.498469 27.734121-37.900377 21.510321-10.401908-6.1874-6.874617-31.846922.179964-43.96695 7.054581-12.120028 21.199736-16.924363 31.637633-10.736962 10.40191 6.223799 13.13736 21.073563 6.08278 33.193591z"/>
  <path fill="darkolivegreen" d="M103.84027 139.50905C103.84027 165.16857 89.515153 200 71.842707 200c-17.672445 0-31.997564-34.86783-31.997564-60.49095 0-25.62313 14.325119-46.441914 31.997564-46.441914 17.672446.0364 31.997563 20.818784 31.997563 46.441914z"/>
</svg>
